<?xml version="1.0" encoding="utf-8"?>
<!-- Generator: Adobe Illustrator 16.0.0, SVG Export Plug-In . SVG Version: 6.00 Build 0)  -->
<!DOCTYPE svg PUBLIC "-//W3C//DTD SVG 1.1//EN" "http://www.w3.org/Graphics/SVG/1.1/DTD/svg11.dtd">
<svg version="1.1" id="_x3F__x3F__x3F__x3F__1" xmlns="http://www.w3.org/2000/svg" xmlns:xlink="http://www.w3.org/1999/xlink"
	 x="0px" y="0px" width="239.682px" height="233.884px" viewBox="0 0 239.682 233.884" enable-background="new 0 0 239.682 233.884"
	 xml:space="preserve">
<g>
	<path fill-rule="evenodd" clip-rule="evenodd" fill="#FBFDFB" d="M119.231,0.184
		c64.678-3.702,120.45,49.114,120.45,117.3c0,68.187-52.517,116.4-117.3,116.4S5.831,182.37,5.831,118.084
		c0-5.909-0.306-12.314,0.55-17.985c0.066-0.438,0.592-1.097,0.206-1.312c-9.498-5.292-8.187-5.577,0.496-14.642
		C9.02,82.122,16.83,60.421,18.74,56.043c-1.566-6.303-0.516-10.433,0.496-11.52c1.163-1.248,2.706,1.18,7.403,3.322
		c2.135,0.743,1.999-2.015,2.87-3.142C49.13,19.315,66.817,3.184,119.231,0.184L119.231,0.184z M123.032,7.415
		c-59.73,0-108.15,48.924-108.15,109.275c0,60.351,48.42,109.275,108.15,109.275c59.729,0,108.149-48.924,108.149-109.275
		C231.182,56.339,182.762,7.415,123.032,7.415z"/>
</g>
</svg>
